Man on a Ledge 2012 R5 DVDRip XVID AC3 5 1 HQ Hive-CM8


Thx Hive

CM8 Doing It Right The First Time 


Sources:
Video: Russian DVD-9
Na.Grani.2012.D.DVD-9
Audio: Bida/P2P/Russian 5.1 Track
thx


Video: 720x304 @bitrate 1700 2pass
Audio: English AC3 5.1 @384
Sample: yes included

 
http://www.imdb.com/title/tt1568338/


General
Format                         : AVI
Format/Info                    : Audio Video Interleave
File size                      : 1.44 GiB
Duration                       : 1h 38mn
Overall bit rate               : 2 091 Kbps
Writing application            : Nandub v1.0rc2
Writing library                : Nandub build 1853/release

Video
ID                             : 0
Format                         : MPEG-4 Visual
Format profile                 : Advanced Simple@L5
Format settings, BVOP          : 2
Format settings, QPel          : Yes
Format settings, GMC           : No warppoints
Format settings, Matrix        : Default (H.263)
Muxing mode                    : Packed bitstream
Codec ID                       : XVID
Codec ID/Hint                  : XviD
Duration                       : 1h 38mn
Bit rate                       : 1 698 Kbps
Width                          : 720 pixels
Height                         : 304 pixels
Display aspect ratio           : 2.35:1
Frame rate                     : 25.000 fps
Color space                    : YUV
Chroma subsampling             : 4:2:0
Bit depth                      : 8 bits
Scan type                      : Progressive
Compression mode               : Lossy
Bits/(Pixel*Frame)             : 0.310
Stream size                    : 1.17 GiB (81%)
Writing library                : XviD 1.2.1 (UTC 2008-12-04)

Audio
ID                             : 1
Format                         : AC-3
Format/Info                    : Audio Coding 3
Mode extension                 : CM (complete main)
Codec ID                       : 2000
Duration                       : 1h 38mn
Bit rate mode                  : Constant
Bit rate                       : 384 Kbps
Channel(s)                     : 6 channels
Channel positions              : Front: L C R, Side: L R, LFE
Sampling rate                  : 48.0 KHz
Bit depth                      : 16 bits
Compression mode               : Lossy
Stream size                    : 270 MiB (18%)
Alignment                      : Split accross interleaves
Interleave, duration           : 40 ms (1.00 video frame)
Interleave, preload duration   : 500 ms


As a police psychologist works to talk down an ex-con who is threatening to jump from a Manhattan hotel rooftop, the biggest diamond heist ever committed is in motion... 


Sam Worthington	... Nick Cassidy
Mandy Gonzalez	... Manager
J. Smith-Cameron ... Psychiatrist
Kyra Sedgwick	... Suzie Morales


Poster:

 
http://i.imgur.com/KjVmG.jpg


Screenshots:

 
http://i.imgur.com/0xbO9.jpg


ENJOY!